<?xml version="1.0" encoding="utf-8"?>
<!-- Generator: Adobe Illustrator 25.0.1, SVG Export Plug-In . SVG Version: 6.00 Build 0)  -->
<svg version="1.1" id="Ebene_1" xmlns="http://www.w3.org/2000/svg" xmlns:xlink="http://www.w3.org/1999/xlink" x="0px" y="0px"
	 viewBox="0 0 74 24" style="enable-background:new 0 0 74 24;" xml:space="preserve">
<style type="text/css">
	.st0{fill:#FFFFFF;}
	.st1{fill:#002B50;}
</style>
<path class="st0" d="M9.2,0L9.2,0L9.2,0z"/>
<path class="st0" d="M9.3,0.1L9.3,0.1L9.3,0.1z"/>
<path class="st0" d="M15.7,19c-0.5,0.9-1.7,1.9-1.7,1.9h2.3c0.2,0,0.4-0.2,0.3-0.4C16.5,20.5,16.5,20.5,15.7,19z"/>
<g>
	<path class="st1" d="M19.6,14.7c-0.2,0-0.3-0.1-0.3-0.3l2.4-12.8h0l-0.2,0.9c0,0.1-0.1,0.1-0.1,0.2L19.1,4C19,4,19,4.1,19,4.2
		c0,0,0,0.1,0,0.1c0,0.1,0,0.2,0,0.2l0,0.2c0,0.1,0,0.2,0,0.3c0,0.1,0,0.2,0.1,0.2c0,0.1,0.1,0.1,0.2,0.1h1.5c0.2,0,0.3,0.1,0.3,0.3
		l-0.1,0.7c0,0.1-0.1,0.2-0.3,0.2h-4.2h-0.2c-0.1,0-0.1,0-0.2-0.1c-0.1,0-0.2-0.1-0.2-0.3c-0.1-0.2-0.1-0.4-0.1-0.7
		c0-0.3,0-0.7,0.1-1.3c0.1-0.5,0.2-1,0.4-1.3c0.1-0.3,0.3-0.5,0.4-0.7c0.1-0.2,0.2-0.3,0.4-0.3c0.1,0,0.2-0.1,0.2-0.1h0.2h0.9h0.2
		c0.2,0,0.3,0.1,0.4,0.2c0.1,0.1,0.1,0.2,0.2,0.4c0,0.2,0.2,0.3,0.4,0.2L20.6,2c0.2-0.1,0.1-0.5-0.1-0.5H16c-0.1,0-0.1,0-0.2,0.1
		L3,14.5c0,0-0.1,0.1-0.1,0.1l-0.7,3.9c0,0.2,0.1,0.3,0.3,0.3h10.2c0.2,0,0.3,0.1,0.3,0.3l-0.9,4.6c0,0.2,0.1,0.3,0.3,0.3h5
		c0.1,0,0.2-0.1,0.3-0.2l0.9-4.8c0-0.1,0.1-0.2,0.3-0.2h51.5c0.1,0,0.2-0.1,0.3-0.2l0.7-3.6c0-0.2-0.1-0.3-0.3-0.3H19.6z M14.4,11.6
		c0-0.1,0.1-0.2,0.3-0.2h4.1h0.1c0,0,0.1,0,0.2,0c0.1,0,0.1-0.1,0.2-0.2c0.1-0.1,0.1-0.2,0.2-0.3c0.1-0.2,0.1-0.3,0.2-0.6
		c0-0.3,0.1-0.5,0.1-0.6c0-0.2,0-0.3,0-0.4c0-0.1-0.1-0.1-0.1-0.2c0,0-0.1,0-0.1,0h-0.1h-4c-0.2,0-0.3-0.1-0.3-0.3l0.1-0.7
		c0-0.1,0.1-0.2,0.3-0.2h4.2l0,0h0.1c0.1,0,0.1,0,0.2,0.1c0.1,0,0.2,0.1,0.2,0.3c0.1,0.2,0.1,0.4,0.1,0.7c0,0.3,0,0.7-0.1,1.3
		c-0.1,0.5-0.2,1-0.3,1.3c-0.1,0.3-0.3,0.5-0.4,0.7c-0.1,0.2-0.2,0.3-0.4,0.3c-0.1,0-0.2,0.1-0.2,0.1h-0.2h-4
		c-0.2,0-0.3-0.1-0.3-0.3L14.4,11.6z M15.2,7.4l-1.3,7.1c0,0.1-0.1,0.2-0.3,0.2H7.9c-0.2,0-0.3-0.3-0.2-0.4l7-7.1
		C14.9,7,15.2,7.2,15.2,7.4z M13.5,16.2c0.1-0.5,0.2-1,0.3-1.3c0.1-0.3,0.3-0.5,0.4-0.7c0.1-0.2,0.2-0.3,0.4-0.3
		c0.1,0,0.2-0.1,0.2-0.1h0.1h3.5h0.1c0.1,0,0.1,0,0.2,0.1c0.1,0,0.2,0.1,0.2,0.3c0.1,0.2,0.1,0.4,0.1,0.7c0,0.3,0,0.7-0.1,1.3
		s-0.2,1-0.3,1.3c-0.1,0.3-0.3,0.5-0.4,0.7c-0.1,0.2-0.2,0.3-0.4,0.3c-0.1,0-0.2,0.1-0.2,0.1h-0.2h-3.3H14c-0.1,0-0.1,0-0.2-0.1
		c-0.1,0-0.2-0.1-0.2-0.3c-0.1-0.2-0.1-0.4-0.1-0.7C13.4,17.2,13.4,16.8,13.5,16.2z M17.7,23.4c0,0.1-0.1,0.2-0.3,0.2h-4.2H13
		c-0.1,0-0.2,0-0.3-0.1c-0.1-0.1-0.2-0.2-0.2-0.3c-0.1-0.1-0.1-0.3-0.1-0.5c0-0.2,0-0.4,0-0.6l0.5-2.4c0-0.1,0.1-0.2,0.3-0.2l0,0
		c0.2,0,0.3,0.1,0.3,0.3L13.2,21l-0.2,0.8c0,0.2,0,0.4,0,0.5c0.1,0.1,0.2,0.2,0.3,0.2h0.1h1.2c0.1,0,0.2-0.1,0.3-0.2l0.4-2
		c0-0.1,0.1-0.2,0.3-0.2h0.1c0.2,0,0.3,0.1,0.3,0.3l-0.3,1.8c0,0.2,0.1,0.3,0.3,0.3h1.8c0.2,0,0.3,0.1,0.3,0.3L17.7,23.4z"/>
	<path class="st1" d="M14.1,17.2c0,0.1,0.1,0.1,0.1,0.2c0,0,0.1,0,0.1,0h0.1h3.3h0.1c0,0,0.1,0,0.2,0c0.1,0,0.1-0.1,0.2-0.2
		c0.1-0.1,0.1-0.2,0.2-0.3c0.1-0.2,0.1-0.3,0.2-0.6c0-0.3,0.1-0.5,0.1-0.6c0-0.2,0-0.3,0-0.4c0-0.1-0.1-0.1-0.1-0.2c0,0-0.1,0-0.1,0
		h-0.1l0,0h-3.3l0,0h-0.1c0,0-0.1,0-0.2,0c-0.1,0-0.1,0.1-0.2,0.2c-0.1,0.1-0.1,0.2-0.2,0.4c-0.1,0.2-0.1,0.4-0.2,0.6
		c0,0.2-0.1,0.4-0.1,0.6C14,17,14,17.2,14.1,17.2z"/>
	<path class="st1" d="M18.3,4.3c0-0.1,0-0.3,0-0.4c0-0.1,0-0.1,0-0.2c0-0.1,0-0.1,0-0.2c0-0.2,0-0.4-0.1-0.4C18.2,3.1,18.1,3,18.1,3
		h-1h0c0,0-0.1,0-0.2,0s-0.1,0.1-0.2,0.2c-0.1,0.1-0.1,0.2-0.2,0.4c-0.1,0.2-0.1,0.4-0.2,0.6c0,0.2-0.1,0.4-0.1,0.6
		c0,0.2,0,0.3,0.1,0.3c0,0.1,0.1,0.1,0.1,0.2c0,0,0.1,0,0.1,0h0.1h1.4c0.1,0,0.3-0.1,0.3-0.3c0,0,0,0,0,0c0-0.1,0-0.3,0-0.4
		C18.4,4.5,18.4,4.4,18.3,4.3z"/>
</g>
<g>
	<g>
		<path class="st1" d="M27.4,2.1c1.4,0,2.4,0.3,3,1c0.4,0.5,0.7,1.2,0.7,2c0,0.3,0,0.6-0.1,0.9l-0.6,3.5c-0.2,1.2-0.7,2.2-1.6,2.9
			c-0.8,0.7-1.9,1.1-3.2,1.1H21l2-11.4H27.4z M26.4,4.5h-1L24.3,11h1.5c0.5,0,0.9-0.1,1.2-0.4c0.3-0.3,0.5-0.7,0.6-1.3L28,6.7
			C28,6.5,28,6.2,28,6C28,5,27.5,4.5,26.4,4.5z"/>
		<path class="st1" d="M39.6,13.5h-8l2-11.4h8l-0.4,2.5H36l-0.4,2.1h4.2l-0.4,2.5h-4.2L34.9,11H40L39.6,13.5z"/>
		<path class="st1" d="M46.1,10.7l3-8.7h3.1l-4.3,11.4h-5.1L42.7,2.1h3.1l0,8.7H46.1z"/>
		<path class="st1" d="M57.1,10h-1.9l-0.6,3.5h-2.9l2-11.4h4.9c1.2,0,2.1,0.3,2.6,0.8c0.4,0.4,0.6,1,0.6,1.6c0,0.2,0,0.5-0.1,0.7
			L61.3,7c-0.2,0.9-0.6,1.6-1.4,2.2C59.1,9.7,58.2,10,57.1,10z M57.6,4.5h-1.4l-0.5,3H57c0.9,0,1.4-0.4,1.5-1.2l0.1-0.7
			c0-0.1,0-0.2,0-0.4c0-0.2-0.1-0.3-0.2-0.5C58.3,4.6,58,4.5,57.6,4.5z"/>
		<path class="st1" d="M64.9,10.2c0,0.7,0.5,1.1,1.6,1.1c1.1,0,1.6-0.3,1.6-1c0-0.3-0.2-0.6-0.5-0.9c-0.4-0.2-0.8-0.4-1.3-0.6
			c-0.5-0.1-1-0.3-1.5-0.5c-0.5-0.2-1-0.5-1.3-0.9c-0.4-0.4-0.5-0.9-0.5-1.6c0-2.7,1.7-4,5.1-4c1.3,0,2.2,0.2,2.8,0.7
			c0.6,0.5,1,1.1,1,2c0,0.3,0,0.6-0.1,0.9c-0.1,0.3-0.2,0.5-0.2,0.6l-0.1,0.2h-2.8c0.2-0.2,0.3-0.6,0.3-0.9c0-0.7-0.5-1-1.4-1
			c-1.1,0-1.7,0.4-1.7,1.1c0,0.4,0.2,0.6,0.5,0.9c0.4,0.2,0.8,0.4,1.3,0.5c0.5,0.1,1,0.3,1.6,0.5c0.5,0.2,1,0.5,1.3,0.9
			c0.4,0.4,0.5,1,0.5,1.6c0,1.3-0.4,2.3-1.2,3c-0.8,0.7-2,1-3.7,1c-1.7,0-2.8-0.3-3.4-0.9C62.2,12.4,62,11.8,62,11
			c0-0.3,0-0.6,0.1-1l0-0.3H65l0,0.2C64.9,10.1,64.9,10.2,64.9,10.2z"/>
	</g>
</g>
</svg>
