<?xml version="1.0" encoding="utf-8"?>
<!-- Generator: Adobe Illustrator 25.0.1, SVG Export Plug-In . SVG Version: 6.00 Build 0)  -->
<svg version="1.1" id="Capa_1" xmlns="http://www.w3.org/2000/svg" xmlns:xlink="http://www.w3.org/1999/xlink" x="0px" y="0px"
	 viewBox="0 0 211 63.9" style="enable-background:new 0 0 211 63.9;" xml:space="preserve">
<style type="text/css">
	.st0{fill:#002B50;}
</style>
<g>
	<path class="st0" d="M55.3,38.6c-0.5,0-0.8-0.4-0.7-0.9l7-37.1h-0.1L61,3.2c0,0.2-0.2,0.4-0.4,0.5l-6.8,3.9
		c-0.2,0.1-0.4,0.4-0.4,0.7c0,0.1,0,0.2,0,0.3c0,0.2,0,0.4,0,0.6l0,0.6c0,0.3,0,0.6,0,0.9c0,0.2,0.1,0.4,0.2,0.6
		c0.1,0.2,0.3,0.3,0.4,0.3h4.4c0.5,0,0.8,0.4,0.7,0.9l-0.4,1.9c-0.1,0.4-0.4,0.6-0.7,0.6H45.9h-0.5c-0.2,0-0.4-0.1-0.7-0.2
		c-0.3-0.1-0.5-0.4-0.7-0.8c-0.2-0.4-0.3-1.1-0.4-2c0-0.9,0.1-2.1,0.4-3.7c0.3-1.6,0.6-2.8,1-3.7c0.4-0.9,0.8-1.6,1.1-2
		c0.4-0.4,0.7-0.7,1-0.8c0.3-0.1,0.6-0.2,0.7-0.2h0.6h2.5h0.5c0.5,0,0.9,0.2,1.2,0.7C53,2.5,53.2,3,53.3,3.5C53.4,4,53.9,4.3,54.4,4
		L58,2c0.7-0.4,0.4-1.4-0.4-1.4H44.8c-0.2,0-0.4,0.1-0.5,0.2L7.3,38c-0.1,0.1-0.2,0.2-0.2,0.4L5,49.6c-0.1,0.5,0.3,0.9,0.7,0.9h29.6
		c0.5,0,0.8,0.4,0.7,0.9l-2.5,13.3c-0.1,0.5,0.3,0.9,0.7,0.9h14.4c0.4,0,0.7-0.3,0.7-0.6l2.6-13.9c0.1-0.4,0.4-0.6,0.7-0.6h148.9
		c0.4,0,0.7-0.3,0.7-0.6l1.9-10.3c0.1-0.5-0.3-0.9-0.7-0.9H55.3z M40.3,29.7c0.1-0.4,0.4-0.6,0.7-0.6H53h0.2c0.1,0,0.3,0,0.4-0.1
		c0.2-0.1,0.3-0.2,0.5-0.5c0.2-0.2,0.4-0.6,0.5-1c0.2-0.4,0.3-1,0.5-1.7c0.1-0.8,0.2-1.4,0.2-1.8c0-0.4-0.1-0.8-0.1-1.1
		c-0.1-0.3-0.2-0.4-0.3-0.5c-0.1-0.1-0.3-0.1-0.4-0.1h-0.2H42.6c-0.5,0-0.8-0.4-0.7-0.9l0.4-1.9c0.1-0.4,0.4-0.6,0.7-0.6h12.3l0,0
		h0.2c0.2,0,0.4,0.1,0.7,0.2c0.3,0.1,0.5,0.4,0.7,0.8c0.2,0.4,0.3,1.1,0.4,2c0,0.9-0.1,2.1-0.4,3.7c-0.3,1.6-0.6,2.8-1,3.7
		c-0.4,0.9-0.7,1.6-1.1,2c-0.4,0.4-0.7,0.7-1,0.8c-0.3,0.1-0.5,0.2-0.7,0.2h-0.5H40.7c-0.5,0-0.8-0.4-0.7-0.9L40.3,29.7z M42.4,17.6
		L38.6,38c-0.1,0.4-0.4,0.6-0.7,0.6H21.4c-0.7,0-1-0.8-0.5-1.3l20.3-20.5C41.6,16.4,42.5,16.8,42.4,17.6z M37.6,43.1
		c0.3-1.6,0.6-2.8,1-3.7c0.4-0.9,0.7-1.6,1.1-2c0.4-0.4,0.7-0.7,1-0.8c0.3-0.1,0.5-0.2,0.7-0.2h0.2h10.2h0.2c0.2,0,0.4,0.1,0.7,0.2
		c0.3,0.1,0.5,0.4,0.7,0.8c0.2,0.4,0.3,1.1,0.4,2c0,0.9-0.1,2.1-0.4,3.7c-0.3,1.6-0.6,2.8-1,3.7c-0.4,0.9-0.7,1.6-1.1,2
		c-0.4,0.4-0.7,0.7-1,0.8c-0.3,0.1-0.5,0.2-0.7,0.2H49h-9.6h-0.6c-0.2,0-0.4-0.1-0.6-0.2c-0.3-0.1-0.5-0.4-0.7-0.8
		c-0.2-0.4-0.3-1.1-0.4-2C37.2,45.9,37.3,44.7,37.6,43.1z M49.6,63.9c-0.1,0.4-0.4,0.6-0.7,0.6H36.8h-0.6c-0.3,0-0.5-0.1-0.8-0.3
		c-0.3-0.2-0.5-0.4-0.6-0.8c-0.2-0.4-0.3-0.8-0.3-1.3c0-0.5,0-1.2,0.1-1.9l1.3-6.9c0.1-0.4,0.4-0.6,0.7-0.6h0c0.5,0,0.8,0.4,0.7,0.9
		l-0.6,3.3l-0.4,2.3c-0.1,0.7-0.1,1.2,0.1,1.6c0.2,0.4,0.4,0.6,0.8,0.6h0.2h3.4c0.4,0,0.7-0.3,0.7-0.6l1.1-5.8
		c0.1-0.4,0.4-0.6,0.7-0.6h0.2c0.5,0,0.8,0.4,0.7,0.9l-1,5.2c-0.1,0.5,0.3,0.9,0.7,0.9h5.2c0.5,0,0.8,0.4,0.7,0.9L49.6,63.9z"/>
	<path class="st0" d="M39.1,46c0.1,0.2,0.2,0.4,0.4,0.5c0.1,0.1,0.3,0.1,0.4,0.1h0.2h9.6h0.2c0.1,0,0.3,0,0.4-0.1
		c0.2-0.1,0.3-0.2,0.5-0.5c0.2-0.2,0.4-0.6,0.5-1c0.2-0.4,0.3-1,0.5-1.7c0.1-0.8,0.2-1.4,0.2-1.8c0-0.5-0.1-0.8-0.1-1.1
		c-0.1-0.2-0.2-0.4-0.3-0.5c-0.1-0.1-0.3-0.1-0.4-0.1h-0.2l0,0h-9.6l0,0h-0.2c-0.1,0-0.3,0-0.4,0.1c-0.2,0.1-0.3,0.2-0.5,0.5
		c-0.2,0.2-0.3,0.6-0.5,1.1c-0.2,0.5-0.3,1.1-0.5,1.8C39,43.9,39,44.5,39,45S39,45.7,39.1,46z"/>
	<path class="st0" d="M51.6,8.5c0-0.4,0-0.8,0-1.1c0-0.2,0-0.3,0-0.5c0-0.2,0-0.3,0-0.4c0-0.7-0.1-1.1-0.3-1.3
		c-0.2-0.2-0.4-0.3-0.6-0.3h-2.9h-0.1c-0.1,0-0.3,0-0.4,0.1s-0.3,0.2-0.5,0.5c-0.2,0.3-0.4,0.6-0.5,1.1C46,7,45.9,7.6,45.7,8.4
		c-0.1,0.7-0.2,1.3-0.2,1.7c0,0.4,0.1,0.8,0.2,1c0.1,0.2,0.2,0.4,0.4,0.5c0.1,0.1,0.3,0.1,0.4,0.1h0.2h4.1c0.4,0,0.8-0.3,0.7-0.8
		c0,0,0-0.1,0-0.1c0-0.4,0-0.7,0-1.1C51.6,9.3,51.6,8.9,51.6,8.5z"/>
</g>
<g>
	<g>
		<path class="st0" d="M77.8,2.1c4,0,6.9,1,8.6,3c1.3,1.5,1.9,3.4,1.9,5.7c0,0.8-0.1,1.7-0.2,2.6l-1.8,10.3
			c-0.6,3.5-2.1,6.2-4.5,8.3c-2.4,2.1-5.5,3.1-9.3,3.1H59.1l5.8-33.1H77.8z M74.9,9.3h-3L68.7,28H73c1.4,0,2.6-0.4,3.4-1.2
			c0.8-0.8,1.4-2.1,1.7-3.8l1.3-7.5c0.1-0.7,0.2-1.3,0.2-1.8C79.6,10.7,78,9.3,74.9,9.3z"/>
		<path class="st0" d="M113,35.2H89.9l5.8-33.1h23.1l-1.3,7.2h-14.8l-1.1,6.2h12.2l-1.3,7.2h-12.2L99.4,28h14.8L113,35.2z"/>
		<path class="st0" d="M131.9,27.1l8.7-25.1h9L137,35.2h-14.7l-0.4-33.1h9l-0.1,25.1H131.9z"/>
		<path class="st0" d="M163.6,25.1h-5.5l-1.8,10.1H148l5.8-33.1h14c3.5,0,5.9,0.8,7.4,2.4c1.1,1.2,1.6,2.8,1.6,4.7
			c0,0.6-0.1,1.3-0.2,2l-0.9,5.2c-0.5,2.5-1.8,4.6-4,6.3C169.5,24.3,166.8,25.1,163.6,25.1z M165,9.3h-4.1l-1.5,8.7h4.1
			c2.5,0,4-1.1,4.4-3.4l0.3-1.9c0.1-0.3,0.1-0.6,0.1-1.1c0-0.5-0.2-1-0.7-1.5C167.1,9.5,166.2,9.3,165,9.3z"/>
		<path class="st0" d="M186.2,25.8c0,2.1,1.5,3.2,4.6,3.2c3.1,0,4.6-1,4.6-2.9c0-1-0.5-1.8-1.6-2.5c-1-0.6-2.3-1.2-3.8-1.6
			c-1.5-0.4-3-0.9-4.5-1.5c-1.5-0.6-2.8-1.5-3.8-2.7c-1-1.2-1.6-2.7-1.6-4.5c0-7.7,5-11.5,14.9-11.5c3.6,0,6.4,0.7,8.2,2
			c1.9,1.4,2.8,3.3,2.8,5.7c0,0.9-0.1,1.7-0.3,2.6c-0.2,0.8-0.5,1.4-0.7,1.7l-0.4,0.6h-8.1c0.7-0.7,1-1.6,1-2.7c0-2-1.3-3-3.9-3
			c-3.3,0-4.9,1-4.9,3.1c0,1,0.5,1.9,1.6,2.5c1,0.6,2.3,1.1,3.8,1.4c1.5,0.4,3,0.8,4.5,1.3c1.5,0.5,2.8,1.4,3.8,2.6
			c1,1.2,1.6,2.8,1.6,4.7c0,3.9-1.2,6.8-3.5,8.7c-2.3,1.9-5.9,2.8-10.8,2.8c-4.8,0-8.2-0.9-9.9-2.6c-1.3-1.3-2-3.1-2-5.3
			c0-0.9,0.1-1.8,0.3-2.8l0.1-0.7h8.3l-0.1,0.6C186.2,25.2,186.2,25.5,186.2,25.8z"/>
	</g>
</g>
</svg>
